<svg width="12" height="12" viewBox="0 0 12 12" fill="none" xmlns="http://www.w3.org/2000/svg">
<g clip-path="url(#clip0_1_1150)">
<path d="M6.68028 0.871754L1.55161 0.0924209C1.31361 0.0550876 1.07094 0.120421 0.888943 0.274421C0.706943 0.433088 0.599609 0.661754 0.599609 0.899754V10.7324C0.599609 10.9891 0.809609 11.1991 1.06628 11.1991H2.58294V8.74909C2.58294 8.29642 2.94694 7.93242 3.39961 7.93242H4.56628C5.01894 7.93242 5.38294 8.29642 5.38294 8.74909V11.1991H7.36628V1.67909C7.36628 1.27775 7.07694 0.937088 6.68028 0.871754ZM3.16628 6.88242H2.46628C2.27308 6.88242 2.11628 6.72562 2.11628 6.53242C2.11628 6.33922 2.27308 6.18242 2.46628 6.18242H3.16628C3.35948 6.18242 3.51628 6.33922 3.51628 6.53242C3.51628 6.72562 3.35948 6.88242 3.16628 6.88242ZM3.16628 5.48242H2.46628C2.27308 5.48242 2.11628 5.32562 2.11628 5.13242C2.11628 4.93922 2.27308 4.78242 2.46628 4.78242H3.16628C3.35948 4.78242 3.51628 4.93922 3.51628 5.13242C3.51628 5.32562 3.35948 5.48242 3.16628 5.48242ZM3.16628 4.08242H2.46628C2.27308 4.08242 2.11628 3.92562 2.11628 3.73242C2.11628 3.53922 2.27308 3.38242 2.46628 3.38242H3.16628C3.35948 3.38242 3.51628 3.53922 3.51628 3.73242C3.51628 3.92562 3.35948 4.08242 3.16628 4.08242ZM3.16628 2.68242H2.46628C2.27308 2.68242 2.11628 2.52562 2.11628 2.33242C2.11628 2.13922 2.27308 1.98242 2.46628 1.98242H3.16628C3.35948 1.98242 3.51628 2.13922 3.51628 2.33242C3.51628 2.52562 3.35948 2.68242 3.16628 2.68242ZM5.49961 6.88242H4.79961C4.60641 6.88242 4.44961 6.72562 4.44961 6.53242C4.44961 6.33922 4.60641 6.18242 4.79961 6.18242H5.49961C5.69281 6.18242 5.84961 6.33922 5.84961 6.53242C5.84961 6.72562 5.69281 6.88242 5.49961 6.88242ZM5.49961 5.48242H4.79961C4.60641 5.48242 4.44961 5.32562 4.44961 5.13242C4.44961 4.93922 4.60641 4.78242 4.79961 4.78242H5.49961C5.69281 4.78242 5.84961 4.93922 5.84961 5.13242C5.84961 5.32562 5.69281 5.48242 5.49961 5.48242ZM5.49961 4.08242H4.79961C4.60641 4.08242 4.44961 3.92562 4.44961 3.73242C4.44961 3.53922 4.60641 3.38242 4.79961 3.38242H5.49961C5.69281 3.38242 5.84961 3.53922 5.84961 3.73242C5.84961 3.92562 5.69281 4.08242 5.49961 4.08242ZM5.49961 2.68242H4.79961C4.60641 2.68242 4.44961 2.52562 4.44961 2.33242C4.44961 2.13922 4.60641 1.98242 4.79961 1.98242H5.49961C5.69281 1.98242 5.84961 2.13922 5.84961 2.33242C5.84961 2.52562 5.69281 2.68242 5.49961 2.68242Z" fill="black"/>
<path d="M11.1557 5.0592L7.83301 4.3634V11.1996H10.983C11.4333 11.1996 11.7997 10.8333 11.7997 10.3829V5.8572C11.7997 5.47174 11.5369 5.14367 11.1557 5.0592ZM10.0497 9.7996H9.34967C9.15647 9.7996 8.99967 9.6428 8.99967 9.4496C8.99967 9.2564 9.15647 9.0996 9.34967 9.0996H10.0497C10.2429 9.0996 10.3997 9.2564 10.3997 9.4496C10.3997 9.6428 10.2429 9.7996 10.0497 9.7996ZM10.0497 8.3996H9.34967C9.15647 8.3996 8.99967 8.2428 8.99967 8.0496C8.99967 7.8564 9.15647 7.6996 9.34967 7.6996H10.0497C10.2429 7.6996 10.3997 7.8564 10.3997 8.0496C10.3997 8.2428 10.2429 8.3996 10.0497 8.3996ZM10.0497 6.9996H9.34967C9.15647 6.9996 8.99967 6.8428 8.99967 6.6496C8.99967 6.4564 9.15647 6.2996 9.34967 6.2996H10.0497C10.2429 6.2996 10.3997 6.4564 10.3997 6.6496C10.3997 6.8428 10.2429 6.9996 10.0497 6.9996Z" fill="black"/>
</g>
<defs>
<clipPath id="clip0_1_1150">
<rect width="11.2" height="11.2" fill="white" transform="translate(0.599609 0.00012207)"/>
</clipPath>
</defs>
</svg>
