<svg width="45" height="44" viewBox="0 0 45 44" fill="none" xmlns="http://www.w3.org/2000/svg">
<g clip-path="url(#clip0_1_663)">
<path d="M34.1674 8.50074C37.1967 11.5296 38.9292 15.618 38.9987 19.9012C39.0681 24.1844 37.4691 28.3267 34.5396 31.4522L34.1674 31.8372L26.3886 39.6142C25.4016 40.6006 24.0765 41.175 22.6819 41.2209C21.2872 41.2669 19.9272 40.781 18.8774 39.8617L18.6134 39.6142L10.8328 31.8354C7.7384 28.741 6 24.5442 6 20.1681C6 15.792 7.7384 11.5951 10.8328 8.50074C13.9271 5.40637 18.124 3.66797 22.5001 3.66797C26.8762 3.66797 31.0731 5.40637 34.1674 8.50074ZM22.5001 14.6681C21.7778 14.6681 21.0626 14.8103 20.3953 15.0867C19.7281 15.3631 19.1217 15.7683 18.611 16.279C18.1003 16.7897 17.6952 17.396 17.4188 18.0633C17.1424 18.7306 17.0001 19.4458 17.0001 20.1681C17.0001 20.8903 17.1424 21.6055 17.4188 22.2728C17.6952 22.9401 18.1003 23.5464 18.611 24.0572C19.1217 24.5679 19.7281 24.973 20.3953 25.2494C21.0626 25.5258 21.7778 25.6681 22.5001 25.6681C23.9588 25.6681 25.3577 25.0886 26.3892 24.0572C27.4206 23.0257 28.0001 21.6268 28.0001 20.1681C28.0001 18.7094 27.4206 17.3104 26.3892 16.279C25.3577 15.2475 23.9588 14.6681 22.5001 14.6681Z" fill="#FB923C"/>
</g>
<defs>
<clipPath id="clip0_1_663">
<rect width="44" height="44" fill="white" transform="translate(0.5)"/>
</clipPath>
</defs>
</svg>
