<svg width="55" height="54" viewBox="0 0 55 54" fill="none" xmlns="http://www.w3.org/2000/svg">
<g clip-path="url(#clip0_1_644)">
<path d="M30.875 32.85L37.625 44.5275C40.702 42.751 43.2574 40.1962 45.0346 37.1196C46.8119 34.043 47.7483 30.553 47.75 27H34.25C34.2508 28.1856 33.9392 29.3505 33.3468 30.3775C32.7543 31.4044 31.9018 32.2572 30.875 32.85Z" fill="#FB923C" stroke="#FB923C" stroke-width="2.5" stroke-linecap="round" stroke-linejoin="round"/>
<path d="M30.875 21.1483L37.625 9.4708C34.5466 7.69349 31.0546 6.75781 27.5 6.75781C23.9454 6.75781 20.4534 7.69349 17.375 9.4708L24.125 21.1483C25.1511 20.5559 26.3151 20.244 27.5 20.244C28.6849 20.244 29.8489 20.5559 30.875 21.1483Z" fill="#FB923C" stroke="#FB923C" stroke-width="2.5" stroke-linecap="round" stroke-linejoin="round"/>
<path d="M24.125 32.85L17.375 44.5275C14.298 42.751 11.7426 40.1962 9.96536 37.1196C8.18814 34.043 7.25167 30.553 7.25 27H20.75C20.7492 28.1856 21.0608 29.3505 21.6532 30.3775C22.2457 31.4044 23.0982 32.2572 24.125 32.85Z" fill="#FB923C" stroke="#FB923C" stroke-width="2.5" stroke-linecap="round" stroke-linejoin="round"/>
</g>
<defs>
<clipPath id="clip0_1_644">
<rect width="54" height="54" fill="white" transform="translate(0.5)"/>
</clipPath>
</defs>
</svg>
